<?xml version="1.0" encoding="UTF-8"?>
<!DOCTYPE svg PUBLIC "-//W3C//DTD SVG 1.1//EN" "http://www.w3.org/Graphics/SVG/1.1/DTD/svg11.dtd">
<svg version="1.1" xmlns="http://www.w3.org/2000/svg" xmlns:xlink="http://www.w3.org/1999/xlink" x="0px" y="0px" width="1024" height="330" viewBox="0, 0, 1024, 330">
  <g id="Layer 1">
    <g>
      <g>
        <path d="M38.222,144.283 Q39.199,144.283 73.65,145.505 Q108.1,146.726 118.117,148.192 L118.117,171.403 L45.063,171.403 Q36.023,171.403 33.824,175.801 Q32.358,179.222 32.358,185.086 L32.358,220.513 L107.367,222.957 L107.367,246.168 L32.358,248.611 L32.358,323.131 L4.016,323.131 L4.016,179.711 Q4.016,160.897 14.156,152.59 Q24.295,144.283 38.222,144.283 z" fill="#151515"/>
        <path d="M225.798,144.283 Q271.732,144.283 271.732,199.257 Q271.732,233.951 256.339,244.946 Q251.208,248.611 248.887,249.466 Q246.566,250.321 242.413,251.543 L277.596,323.131 L245.833,323.131 L213.338,253.498 L176.444,250.077 L176.444,323.131 L148.102,323.131 L148.102,144.283 z M176.688,227.11 L223.599,227.11 Q228.73,227.11 231.662,226.255 Q234.594,225.4 237.526,222.957 Q243.146,217.826 243.146,200.112 Q243.146,182.398 238.015,176.29 Q232.884,170.182 223.599,170.182 L176.688,170.182 z" fill="#151515"/>
        <path d="M322.728,148.192 Q327.615,145.748 332.013,145.015 Q336.41,144.282 339.098,144.282 Q341.786,144.282 376.236,145.504 Q410.686,146.726 420.704,148.192 L420.704,171.403 L347.65,171.403 Q338.609,171.403 336.41,175.801 Q334.944,179.221 334.944,185.085 L334.944,220.513 L409.953,222.956 L409.953,246.167 L334.944,248.611 L334.944,284.038 Q335.189,294.3 341.786,296.01 Q344.962,296.743 350.093,296.743 L420.704,296.743 L420.704,319.71 Q412.885,320.687 361.821,323.131 L344.962,323.864 Q343.007,323.864 340.442,323.864 Q337.876,323.864 333.967,323.497 Q330.058,323.131 324.683,321.054 Q319.307,318.977 315.398,315.556 Q306.602,307.249 306.602,289.902 L306.602,179.466 Q306.602,156.499 322.728,148.192 z" fill="#151515"/>
        <path d="M450.689,323.131 L450.689,144.283 L526.43,144.283 Q551.596,144.283 563.324,159.187 Q573.586,172.136 573.586,198.279 Q573.586,213.428 570.409,224.545 Q567.233,235.662 562.713,241.403 Q558.193,247.145 551.352,250.321 Q544.51,253.498 539.746,254.108 Q534.982,254.719 531.561,254.719 Q528.141,254.719 524.964,254.597 Q521.788,254.475 510.549,253.498 Q480.741,250.566 479.031,249.833 L479.031,323.131 z M524.72,170.426 L479.031,170.426 L479.031,228.82 L524.72,228.82 Q534.493,228.82 539.746,222.468 Q544.999,216.115 544.999,198.524 Q544.755,178.733 535.47,173.114 Q531.072,170.426 524.72,170.426 z" fill="#151515"/>
        <path d="M604.302,323.131 L604.302,144.283 L680.044,144.283 Q705.21,144.283 716.938,159.187 Q727.2,172.136 727.2,198.279 Q727.2,213.428 724.023,224.545 Q720.847,235.662 716.327,241.403 Q711.807,247.145 704.966,250.321 Q698.124,253.498 693.36,254.108 Q688.596,254.719 685.175,254.719 Q681.755,254.719 678.578,254.597 Q675.402,254.475 664.163,253.498 Q634.355,250.566 632.645,249.833 L632.645,323.131 z M678.334,170.426 L632.645,170.426 L632.645,228.82 L678.334,228.82 Q688.107,228.82 693.36,222.468 Q698.613,216.115 698.613,198.524 Q698.369,178.733 689.084,173.114 Q684.686,170.426 678.334,170.426 z" fill="#151515"/>
        <path d="M761.337,289.902 L761.337,144.283 L789.679,144.283 L789.679,283.794 Q789.679,293.079 794.81,295.033 Q798.475,296.499 804.828,296.499 L871.041,296.499 L871.041,323.131 L797.009,323.131 Q771.11,323.131 764.269,306.517 Q761.337,299.676 761.337,289.902 z" fill="#151515"/>
        <path d="M918.862,148.192 Q923.749,145.748 928.147,145.015 Q932.544,144.282 935.232,144.282 Q937.92,144.282 972.37,145.504 Q1006.82,146.726 1016.838,148.192 L1016.838,171.403 L943.784,171.403 Q934.743,171.403 932.544,175.801 Q931.078,179.221 931.078,185.085 L931.078,220.513 L1006.087,222.956 L1006.087,246.167 L931.078,248.611 L931.078,284.038 Q931.323,294.3 937.92,296.01 Q941.096,296.743 946.227,296.743 L1016.838,296.743 L1016.838,319.71 Q1009.019,320.687 957.955,323.131 L941.096,323.864 Q939.141,323.864 936.576,323.864 Q934.01,323.864 930.101,323.497 Q926.192,323.131 920.817,321.054 Q915.441,318.977 911.532,315.556 Q902.736,307.249 902.736,289.902 L902.736,179.466 Q902.736,156.499 918.862,148.192 z" fill="#151515"/>
      </g>
      <path d="M819.831,117.37 C788.61,117.37 763.3,92.06 763.3,60.838 C763.3,29.616 788.61,4.306 819.832,4.306 L878.303,4.306 L878.303,4.306 L946.081,4.306 L946.081,4.306 L960.084,4.306 C991.306,4.306 1016.616,29.617 1016.616,60.838 C1016.616,92.06 991.306,117.37 960.084,117.37 L891.417,117.37 L891.417,117.37 z M821.341,25.097 C801.092,25.098 784.677,41.791 784.677,62.383 C784.677,82.975 801.092,99.668 821.341,99.668 C904.721,99.668 859.769,99.668 958.574,99.668 C978.824,99.668 995.239,82.975 995.239,62.383 C995.239,41.791 978.824,25.098 958.575,25.098 L891.417,25.097 L891.417,25.097 z" fill="#D21800"/>
      <path d="M672.657,4.306 C703.879,4.306 729.189,29.617 729.189,60.838 C729.189,92.06 703.879,117.37 672.657,117.37 L528.165,117.37 L528.165,117.37 L506.815,117.37 C475.593,117.37 450.283,92.06 450.283,60.838 C450.283,29.617 475.593,4.306 506.815,4.306 L528.165,4.306 L528.165,4.306 z M528.165,25.097 L508.324,25.097 C488.076,25.098 471.661,41.791 471.661,62.383 C471.661,82.975 488.076,99.668 508.325,99.668 L528.165,99.668 L528.165,99.668 L671.147,99.668 C691.396,99.668 707.811,82.975 707.811,62.383 C707.811,41.791 691.396,25.098 671.147,25.098 L528.165,25.097 z" fill="#F47A00"/>
      <path d="M364.067,4.306 C395.29,4.306 420.6,29.616 420.6,60.838 C420.6,92.06 395.29,117.37 364.068,117.37 L106.721,117.37 L106.721,117.37 L60.548,117.37 C29.326,117.37 4.016,92.06 4.016,60.838 C4.016,29.616 29.326,4.306 60.548,4.306 z M62.057,25.097 C41.809,25.098 25.394,41.791 25.394,62.383 C25.394,82.975 41.809,99.668 62.058,99.668 L106.721,99.668 L106.721,99.668 L362.558,99.668 C382.807,99.668 399.222,82.975 399.222,62.383 C399.222,41.791 382.807,25.098 362.558,25.098 z" fill="#838D11"/>
    </g>
  </g>
  <defs/>
</svg>
