<?xml version="1.0" encoding="UTF-8"?>
<!DOCTYPE svg PUBLIC "-//W3C//DTD SVG 1.1//EN" "http://www.w3.org/Graphics/SVG/1.1/DTD/svg11.dtd">
<svg version="1.1" xmlns="http://www.w3.org/2000/svg" xmlns:xlink="http://www.w3.org/1999/xlink" x="0px" y="0px" width="1024" height="400" viewBox="0, 0, 1024, 400">
  <g id="Layer 1">
    <g>
      <g>
        <path d="M38.222,145.283 Q39.199,145.283 73.65,146.505 Q108.1,147.726 118.117,149.192 L118.117,172.403 L45.063,172.403 Q36.023,172.403 33.824,176.801 Q32.358,180.222 32.358,186.086 L32.358,221.513 L107.367,223.957 L107.367,247.168 L32.358,249.611 L32.358,324.131 L4.016,324.131 L4.016,180.711 Q4.016,161.897 14.156,153.59 Q24.295,145.283 38.222,145.283 z" fill="#151515"/>
        <path d="M225.798,145.283 Q271.732,145.283 271.732,200.257 Q271.732,234.951 256.339,245.946 Q251.208,249.611 248.887,250.466 Q246.566,251.321 242.413,252.543 L277.596,324.131 L245.833,324.131 L213.338,254.498 L176.444,251.077 L176.444,324.131 L148.102,324.131 L148.102,145.283 z M176.688,228.11 L223.599,228.11 Q228.73,228.11 231.662,227.255 Q234.594,226.4 237.526,223.957 Q243.146,218.826 243.146,201.112 Q243.146,183.398 238.015,177.29 Q232.884,171.182 223.599,171.182 L176.688,171.182 z" fill="#151515"/>
        <path d="M322.728,149.192 Q327.615,146.748 332.013,146.015 Q336.41,145.282 339.098,145.282 Q341.786,145.282 376.236,146.504 Q410.686,147.726 420.704,149.192 L420.704,172.403 L347.65,172.403 Q338.609,172.403 336.41,176.801 Q334.944,180.221 334.944,186.085 L334.944,221.513 L409.953,223.956 L409.953,247.167 L334.944,249.611 L334.944,285.038 Q335.189,295.3 341.786,297.01 Q344.962,297.743 350.093,297.743 L420.704,297.743 L420.704,320.71 Q412.885,321.687 361.821,324.131 L344.962,324.864 Q343.007,324.864 340.442,324.864 Q337.876,324.864 333.967,324.497 Q330.058,324.131 324.683,322.054 Q319.307,319.977 315.398,316.556 Q306.602,308.249 306.602,290.902 L306.602,180.466 Q306.602,157.499 322.728,149.192 z" fill="#151515"/>
        <path d="M450.689,324.131 L450.689,145.283 L526.43,145.283 Q551.596,145.283 563.324,160.187 Q573.586,173.136 573.586,199.279 Q573.586,214.428 570.409,225.545 Q567.233,236.662 562.713,242.403 Q558.193,248.145 551.352,251.321 Q544.51,254.498 539.746,255.108 Q534.982,255.719 531.561,255.719 Q528.141,255.719 524.964,255.597 Q521.788,255.475 510.549,254.498 Q480.741,251.566 479.031,250.833 L479.031,324.131 z M524.72,171.426 L479.031,171.426 L479.031,229.82 L524.72,229.82 Q534.493,229.82 539.746,223.468 Q544.999,217.115 544.999,199.524 Q544.755,179.733 535.47,174.114 Q531.072,171.426 524.72,171.426 z" fill="#151515"/>
        <path d="M604.302,324.131 L604.302,145.283 L680.044,145.283 Q705.21,145.283 716.938,160.187 Q727.2,173.136 727.2,199.279 Q727.2,214.428 724.023,225.545 Q720.847,236.662 716.327,242.403 Q711.807,248.145 704.966,251.321 Q698.124,254.498 693.36,255.108 Q688.596,255.719 685.175,255.719 Q681.755,255.719 678.578,255.597 Q675.402,255.475 664.163,254.498 Q634.355,251.566 632.645,250.833 L632.645,324.131 z M678.334,171.426 L632.645,171.426 L632.645,229.82 L678.334,229.82 Q688.107,229.82 693.36,223.468 Q698.613,217.115 698.613,199.524 Q698.369,179.733 689.084,174.114 Q684.686,171.426 678.334,171.426 z" fill="#151515"/>
        <path d="M761.337,290.902 L761.337,145.283 L789.679,145.283 L789.679,284.794 Q789.679,294.079 794.81,296.033 Q798.475,297.499 804.828,297.499 L871.041,297.499 L871.041,324.131 L797.009,324.131 Q771.11,324.131 764.269,307.517 Q761.337,300.676 761.337,290.902 z" fill="#151515"/>
        <path d="M918.862,149.192 Q923.749,146.748 928.147,146.015 Q932.544,145.282 935.232,145.282 Q937.92,145.282 972.37,146.504 Q1006.82,147.726 1016.838,149.192 L1016.838,172.403 L943.784,172.403 Q934.743,172.403 932.544,176.801 Q931.078,180.221 931.078,186.085 L931.078,221.513 L1006.087,223.956 L1006.087,247.167 L931.078,249.611 L931.078,285.038 Q931.323,295.3 937.92,297.01 Q941.096,297.743 946.227,297.743 L1016.838,297.743 L1016.838,320.71 Q1009.019,321.687 957.955,324.131 L941.096,324.864 Q939.141,324.864 936.576,324.864 Q934.01,324.864 930.101,324.497 Q926.192,324.131 920.817,322.054 Q915.441,319.977 911.532,316.556 Q902.736,308.249 902.736,290.902 L902.736,180.466 Q902.736,157.499 918.862,149.192 z" fill="#151515"/>
      </g>
      <g>
        <path d="M4.556,374.932 Q4.016,372.478 4.016,367.799 Q4.016,363.12 5.172,360.051 Q6.328,356.983 8.821,355.73 Q11.313,354.477 15.784,354.477 Q22.464,354.477 25.008,357.622 Q27.552,360.767 27.552,368.515 Q27.552,376.262 25.008,379.202 Q22.464,382.143 15.784,382.143 Q12.289,382.143 10.054,381.427 Q7.819,380.711 6.457,379.049 Q5.095,377.387 4.556,374.932 z M7.176,364.219 Q6.945,366.086 6.945,368.284 Q6.945,370.483 7.074,371.915 Q7.202,373.347 7.51,374.421 Q7.819,375.495 8.204,376.262 Q8.59,377.029 9.206,377.566 Q9.823,378.103 10.439,378.435 Q11.056,378.768 11.981,378.921 Q13.523,379.228 15.45,379.228 Q17.377,379.228 18.482,379.1 Q19.586,378.972 20.666,378.589 Q21.745,378.205 22.413,377.489 Q23.081,376.773 23.595,375.597 Q24.622,373.449 24.622,369.793 Q24.622,366.137 24.391,364.321 Q24.16,362.506 23.646,361.253 Q23.132,360 22.49,359.233 Q21.848,358.466 20.743,358.057 Q19.638,357.648 18.533,357.52 Q17.428,357.392 15.758,357.392 Q14.088,357.392 13.035,357.494 Q11.981,357.597 10.876,357.98 Q9.771,358.364 9.129,359.105 Q8.487,359.847 7.947,361.1 Q7.408,362.352 7.176,364.219 z" fill="#151515"/>
        <path d="M55.913,354.427 Q57.789,354.427 59.433,355.27 Q61.078,356.114 62.08,357.444 Q63.082,358.773 63.698,360.665 Q64.829,363.887 64.829,367.185 Q64.829,370.484 64.623,372.35 Q64.418,374.217 63.801,376.134 Q63.185,378.052 62.208,379.331 Q59.998,382.297 55.631,382.297 Q52.907,382.297 50.004,381.581 Q47.1,380.865 45.507,380.251 L45.507,395.643 L42.681,395.643 L42.681,354.733 L44.736,354.733 L45.559,357.75 Q47.408,356.267 50.723,355.347 Q54.038,354.427 55.913,354.427 z M55.631,379.382 Q58.508,379.382 60.101,377.183 Q61.9,374.779 61.9,368.796 Q61.9,362.813 60.204,360.077 Q58.508,357.341 55.631,357.341 Q51.263,357.341 45.559,359.847 L45.559,378.001 Q50.954,379.382 55.631,379.382 z" fill="#151515"/>
        <path d="M80.189,376.492 Q79.393,373.552 79.393,369.359 Q79.393,365.165 79.65,362.992 Q79.907,360.819 80.549,359.285 Q81.192,357.751 82.014,356.83 Q82.836,355.91 84.223,355.398 Q86.536,354.529 90.801,354.529 Q95.786,354.529 97.584,355.5 Q99.537,356.523 100.256,358.313 Q101.233,360.563 101.233,363.35 Q101.233,366.137 100.462,367.415 Q98.92,369.921 94.193,369.921 L82.322,369.921 Q82.322,377.081 84.943,378.512 Q86.125,379.228 88.386,379.228 Q95.991,379.228 100.719,378.564 L100.719,380.711 Q95.631,382.143 88.643,382.143 Q84.891,382.143 82.939,380.788 Q80.986,379.433 80.189,376.492 z M82.322,367.058 L94.193,367.058 Q96.197,367.058 97.25,366.418 Q98.304,365.779 98.304,363.785 Q98.304,361.79 97.97,360.486 Q97.636,359.182 96.659,358.492 Q95.683,357.802 94.45,357.623 Q93.216,357.444 91.135,357.444 Q89.054,357.444 88,357.52 Q86.947,357.597 85.868,357.929 Q84.789,358.262 84.223,358.876 Q83.658,359.489 83.144,360.563 Q82.322,362.404 82.322,367.058 z" fill="#151515"/>
        <path d="M125.226,354.861 Q127.205,354.273 129.492,354.273 Q131.778,354.273 133.731,355.5 Q137.585,357.955 137.585,362.966 L137.585,381.887 L134.656,381.887 L134.656,362.966 Q134.656,360.307 133.14,358.747 Q131.624,357.188 129.363,357.188 Q127.102,357.188 125.355,357.571 Q123.608,357.955 122.323,358.492 Q121.038,359.029 118.726,360.154 L118.726,381.887 L115.797,381.887 L115.797,354.733 L117.801,354.733 L118.726,357.904 Q120.679,356.727 121.963,356.088 Q123.248,355.449 125.226,354.861 z" fill="#151515"/>
        <path d="M173.804,363.477 L173.804,361.125 Q173.804,357.852 175.423,356.165 Q177.042,354.477 180.896,354.477 Q182.797,354.477 187.217,354.733 Q191.636,354.989 193.794,355.193 L193.794,357.341 L180.896,357.341 Q178.326,357.341 177.53,358.236 Q176.733,359.131 176.733,361.125 L176.733,363.477 Q176.733,365.932 177.864,366.495 Q178.84,366.904 180.896,366.904 L188.501,366.904 Q191.636,366.904 193.409,368.617 Q195.182,370.33 195.182,373.245 L195.182,375.751 Q195.182,379.79 193.023,381.069 Q191.225,382.143 188.989,382.143 Q186.754,382.143 181.692,381.836 Q176.631,381.529 174.935,381.324 L174.935,379.228 L188.501,379.228 Q190.454,379.228 190.968,378.716 Q192.253,377.643 192.253,375.751 L192.253,373.245 Q192.253,369.819 188.501,369.819 L180.896,369.819 Q177.042,369.819 175.423,368.54 Q173.804,367.262 173.804,363.477 z" fill="#151515"/>
        <path d="M209.72,374.932 Q209.18,372.478 209.18,367.799 Q209.18,363.12 210.336,360.051 Q211.493,356.983 213.985,355.73 Q216.477,354.477 220.948,354.477 Q227.628,354.477 230.172,357.622 Q232.716,360.767 232.716,368.515 Q232.716,376.262 230.172,379.202 Q227.628,382.143 220.948,382.143 Q217.454,382.143 215.218,381.427 Q212.983,380.711 211.621,379.049 Q210.259,377.387 209.72,374.932 z M212.341,364.219 Q212.109,366.086 212.109,368.284 Q212.109,370.483 212.238,371.915 Q212.366,373.347 212.675,374.421 Q212.983,375.495 213.368,376.262 Q213.754,377.029 214.37,377.566 Q214.987,378.103 215.604,378.435 Q216.22,378.768 217.145,378.921 Q218.687,379.228 220.614,379.228 Q222.541,379.228 223.646,379.1 Q224.751,378.972 225.83,378.589 Q226.909,378.205 227.577,377.489 Q228.245,376.773 228.759,375.597 Q229.787,373.449 229.787,369.793 Q229.787,366.137 229.555,364.321 Q229.324,362.506 228.81,361.253 Q228.296,360 227.654,359.233 Q227.012,358.466 225.907,358.057 Q224.802,357.648 223.697,357.52 Q222.592,357.392 220.922,357.392 Q219.252,357.392 218.199,357.494 Q217.145,357.597 216.04,357.98 Q214.936,358.364 214.293,359.105 Q213.651,359.847 213.111,361.1 Q212.572,362.352 212.341,364.219 z" fill="#151515"/>
        <path d="M250.209,354.733 L250.209,373.654 Q250.209,376.313 251.725,377.873 Q253.241,379.432 255.707,379.432 Q258.791,379.432 260.589,378.819 Q263.056,377.949 266.139,376.415 L266.139,354.733 L269.068,354.733 L269.068,381.887 L267.064,381.887 L266.139,378.716 Q264.186,379.841 262.902,380.506 Q259.356,382.347 255.579,382.347 Q251.802,382.347 249.541,379.79 Q247.28,377.233 247.28,373.654 L247.28,354.733 z" fill="#151515"/>
        <path d="M284.763,381.887 L284.763,354.733 L286.767,354.733 L287.692,358.16 Q287.795,358.108 288.617,357.648 Q289.439,357.188 289.619,357.086 Q289.799,356.983 290.518,356.574 Q291.238,356.165 291.52,356.063 Q291.803,355.961 292.497,355.628 Q293.19,355.296 293.576,355.194 Q293.961,355.091 294.604,354.887 Q295.246,354.682 295.76,354.631 Q297.25,354.427 299.151,354.427 Q301.053,354.427 302.029,354.836 L302.029,357.699 Q300.59,357.393 299.1,357.393 Q297.61,357.393 296.993,357.444 Q296.376,357.495 295.914,357.52 Q295.452,357.546 294.809,357.725 Q294.167,357.904 293.858,357.929 Q293.55,357.955 292.831,358.236 Q292.111,358.518 291.906,358.594 Q291.7,358.671 290.878,359.029 Q290.056,359.387 289.927,359.464 Q289.799,359.54 288.822,360.001 Q287.846,360.461 287.692,360.512 L287.692,381.887 z" fill="#151515"/>
        <path d="M314.897,368.284 Q314.897,364.807 315.36,362.301 Q315.822,359.796 316.542,358.287 Q317.261,356.778 318.469,355.909 Q319.677,355.04 320.91,354.759 Q322.143,354.477 323.89,354.477 Q328.31,354.477 335.093,355.807 L335.093,357.852 Q328.464,357.392 325.74,357.392 Q323.017,357.392 322.4,357.469 Q321.783,357.546 321.115,357.827 Q320.447,358.108 319.985,358.568 Q319.522,359.029 319.086,359.847 Q318.649,360.665 318.392,361.841 Q317.827,364.398 317.827,368.566 Q317.827,372.733 318.546,375.137 Q319.265,377.54 320.524,378.384 Q321.783,379.228 323.89,379.228 Q328.104,379.228 333.603,378.665 L335.453,378.512 L335.453,380.66 Q330.468,382.04 323.89,382.143 Q318.495,382.143 316.593,378.307 Q314.897,374.983 314.897,368.284 z" fill="#151515"/>
        <path d="M350.248,376.492 Q349.451,373.552 349.451,369.359 Q349.451,365.165 349.708,362.992 Q349.965,360.819 350.607,359.285 Q351.25,357.751 352.072,356.83 Q352.894,355.91 354.282,355.398 Q356.594,354.529 360.859,354.529 Q365.844,354.529 367.642,355.5 Q369.595,356.523 370.315,358.313 Q371.291,360.563 371.291,363.35 Q371.291,366.137 370.52,367.415 Q368.978,369.921 364.251,369.921 L352.38,369.921 Q352.38,377.081 355.001,378.512 Q356.183,379.228 358.444,379.228 Q366.049,379.228 370.777,378.564 L370.777,380.711 Q365.69,382.143 358.701,382.143 Q354.95,382.143 352.997,380.788 Q351.044,379.433 350.248,376.492 z M352.38,367.058 L364.251,367.058 Q366.255,367.058 367.308,366.418 Q368.362,365.779 368.362,363.785 Q368.362,361.79 368.028,360.486 Q367.694,359.182 366.717,358.492 Q365.741,357.802 364.508,357.623 Q363.274,357.444 361.193,357.444 Q359.112,357.444 358.059,357.52 Q357.005,357.597 355.926,357.929 Q354.847,358.262 354.282,358.876 Q353.716,359.489 353.202,360.563 Q352.38,362.404 352.38,367.058 z" fill="#151515"/>
        <path d="M421.308,354.427 Q423.184,354.427 424.828,355.27 Q426.473,356.114 427.475,357.444 Q428.477,358.773 429.094,360.665 Q430.224,363.887 430.224,367.185 Q430.224,370.484 430.018,372.35 Q429.813,374.217 429.196,376.134 Q428.58,378.052 427.603,379.331 Q425.394,382.297 421.026,382.297 Q418.302,382.297 415.399,381.581 Q412.495,380.865 410.902,380.251 L410.902,395.643 L408.076,395.643 L408.076,354.733 L410.131,354.733 L410.954,357.75 Q412.804,356.267 416.118,355.347 Q419.433,354.427 421.308,354.427 z M421.026,379.382 Q423.903,379.382 425.496,377.183 Q427.295,374.779 427.295,368.796 Q427.295,362.813 425.599,360.077 Q423.903,357.341 421.026,357.341 Q416.658,357.341 410.954,359.847 L410.954,378.001 Q416.349,379.382 421.026,379.382 z" fill="#151515"/>
        <path d="M445.353,381.887 L445.353,354.733 L447.357,354.733 L448.282,358.16 Q448.385,358.108 449.207,357.648 Q450.029,357.188 450.209,357.086 Q450.389,356.983 451.108,356.574 Q451.828,356.165 452.11,356.063 Q452.393,355.961 453.087,355.628 Q453.78,355.296 454.166,355.194 Q454.551,355.091 455.194,354.887 Q455.836,354.682 456.35,354.631 Q457.84,354.427 459.741,354.427 Q461.643,354.427 462.619,354.836 L462.619,357.699 Q461.18,357.393 459.69,357.393 Q458.2,357.393 457.583,357.444 Q456.966,357.495 456.504,357.52 Q456.042,357.546 455.399,357.725 Q454.757,357.904 454.448,357.929 Q454.14,357.955 453.421,358.236 Q452.701,358.518 452.496,358.594 Q452.29,358.671 451.468,359.029 Q450.646,359.387 450.517,359.464 Q450.389,359.54 449.413,360.001 Q448.436,360.461 448.282,360.512 L448.282,381.887 z" fill="#151515"/>
        <path d="M476.027,374.932 Q475.487,372.478 475.487,367.799 Q475.487,363.12 476.643,360.051 Q477.8,356.983 480.292,355.73 Q482.784,354.477 487.255,354.477 Q493.935,354.477 496.479,357.622 Q499.023,360.767 499.023,368.515 Q499.023,376.262 496.479,379.202 Q493.935,382.143 487.255,382.143 Q483.761,382.143 481.525,381.427 Q479.29,380.711 477.928,379.049 Q476.566,377.387 476.027,374.932 z M478.648,364.219 Q478.416,366.086 478.416,368.284 Q478.416,370.483 478.545,371.915 Q478.673,373.347 478.982,374.421 Q479.29,375.495 479.675,376.262 Q480.061,377.029 480.677,377.566 Q481.294,378.103 481.911,378.435 Q482.527,378.768 483.452,378.921 Q484.994,379.228 486.921,379.228 Q488.848,379.228 489.953,379.1 Q491.058,378.972 492.137,378.589 Q493.216,378.205 493.884,377.489 Q494.552,376.773 495.066,375.597 Q496.094,373.449 496.094,369.793 Q496.094,366.137 495.862,364.321 Q495.631,362.506 495.117,361.253 Q494.603,360 493.961,359.233 Q493.319,358.466 492.214,358.057 Q491.109,357.648 490.004,357.52 Q488.899,357.392 487.229,357.392 Q485.559,357.392 484.506,357.494 Q483.452,357.597 482.347,357.98 Q481.243,358.364 480.6,359.105 Q479.958,359.847 479.418,361.1 Q478.879,362.352 478.648,364.219 z" fill="#151515"/>
        <path d="M513.818,372.299 Q513.587,370.483 513.587,368.31 Q513.587,366.137 513.792,364.27 Q513.998,362.404 514.589,360.486 Q515.18,358.568 516.156,357.29 Q518.366,354.324 522.734,354.324 Q524.635,354.324 527.59,354.886 Q530.545,355.449 532.857,356.369 L532.857,341.744 L535.683,341.744 L535.683,381.887 L533.679,381.887 L532.806,378.87 Q531.624,379.842 528.361,381.018 Q525.097,382.194 522.836,382.194 Q520.575,382.194 518.931,381.35 Q517.287,380.506 516.284,379.177 Q515.282,377.847 514.666,375.981 Q514.049,374.114 513.818,372.299 z M518.186,376.594 Q519.856,379.279 522.734,379.279 Q527.102,379.279 532.806,376.773 L532.806,358.62 Q527.41,357.239 522.734,357.239 Q519.034,357.239 517.646,360.563 Q516.516,363.222 516.516,368.566 Q516.516,373.91 518.186,376.594 z" fill="#151515"/>
        <path d="M553.793,354.733 L553.793,373.654 Q553.793,376.313 555.309,377.873 Q556.825,379.432 559.291,379.432 Q562.375,379.432 564.173,378.819 Q566.64,377.949 569.723,376.415 L569.723,354.733 L572.652,354.733 L572.652,381.887 L570.648,381.887 L569.723,378.716 Q567.77,379.841 566.486,380.506 Q562.94,382.347 559.163,382.347 Q555.386,382.347 553.125,379.79 Q550.864,377.233 550.864,373.654 L550.864,354.733 z" fill="#151515"/>
        <path d="M587.782,368.284 Q587.782,364.807 588.245,362.301 Q588.707,359.796 589.427,358.287 Q590.146,356.778 591.354,355.909 Q592.562,355.04 593.795,354.759 Q595.028,354.477 596.775,354.477 Q601.195,354.477 607.978,355.807 L607.978,357.852 Q601.349,357.392 598.625,357.392 Q595.902,357.392 595.285,357.469 Q594.668,357.546 594,357.827 Q593.332,358.108 592.87,358.568 Q592.407,359.029 591.971,359.847 Q591.534,360.665 591.277,361.841 Q590.712,364.398 590.712,368.566 Q590.712,372.733 591.431,375.137 Q592.15,377.54 593.409,378.384 Q594.668,379.228 596.775,379.228 Q600.989,379.228 606.488,378.665 L608.338,378.512 L608.338,380.66 Q603.353,382.04 596.775,382.143 Q591.38,382.143 589.478,378.307 Q587.782,374.983 587.782,368.284 z" fill="#151515"/>
        <path d="M620.589,357.596 L620.589,355.449 L625.419,354.682 L626.19,347.113 L628.348,347.113 L628.348,354.682 L636.673,354.682 L636.673,357.596 L628.348,357.596 L628.348,372.222 Q628.348,376.262 629.53,377.591 Q630.455,378.665 631.894,378.972 Q635.851,379.841 636.211,379.841 L636.211,381.887 L632.048,381.887 Q625.419,381.887 625.419,372.222 L625.419,357.596 z" fill="#151515"/>
        <path d="M650.106,350.233 L650.106,347.369 Q650.106,346.295 651.134,346.295 L653.035,346.295 Q654.012,346.295 654.012,347.369 L654.012,350.233 Q654.012,351.255 653.035,351.255 L651.134,351.255 Q650.517,351.255 650.312,350.898 Q650.106,350.54 650.106,350.233 z M650.517,381.887 L650.517,354.733 L653.446,354.733 L653.446,381.887 z" fill="#151515"/>
        <path d="M669.116,374.932 Q668.576,372.478 668.576,367.799 Q668.576,363.12 669.732,360.051 Q670.889,356.983 673.381,355.73 Q675.873,354.477 680.344,354.477 Q687.024,354.477 689.568,357.622 Q692.112,360.767 692.112,368.515 Q692.112,376.262 689.568,379.202 Q687.024,382.143 680.344,382.143 Q676.85,382.143 674.614,381.427 Q672.379,380.711 671.017,379.049 Q669.655,377.387 669.116,374.932 z M671.737,364.219 Q671.505,366.086 671.505,368.284 Q671.505,370.483 671.634,371.915 Q671.762,373.347 672.071,374.421 Q672.379,375.495 672.764,376.262 Q673.15,377.029 673.766,377.566 Q674.383,378.103 675,378.435 Q675.616,378.768 676.541,378.921 Q678.083,379.228 680.01,379.228 Q681.937,379.228 683.042,379.1 Q684.147,378.972 685.226,378.589 Q686.305,378.205 686.973,377.489 Q687.641,376.773 688.155,375.597 Q689.183,373.449 689.183,369.793 Q689.183,366.137 688.951,364.321 Q688.72,362.506 688.206,361.253 Q687.692,360 687.05,359.233 Q686.408,358.466 685.303,358.057 Q684.198,357.648 683.093,357.52 Q681.988,357.392 680.318,357.392 Q678.648,357.392 677.595,357.494 Q676.541,357.597 675.436,357.98 Q674.332,358.364 673.689,359.105 Q673.047,359.847 672.507,361.1 Q671.968,362.352 671.737,364.219 z" fill="#151515"/>
        <path d="M716.67,354.861 Q718.649,354.273 720.936,354.273 Q723.222,354.273 725.175,355.5 Q729.029,357.955 729.029,362.966 L729.029,381.887 L726.1,381.887 L726.1,362.966 Q726.1,360.307 724.584,358.747 Q723.068,357.188 720.807,357.188 Q718.546,357.188 716.799,357.571 Q715.052,357.955 713.767,358.492 Q712.482,359.029 710.17,360.154 L710.17,381.887 L707.241,381.887 L707.241,354.733 L709.245,354.733 L710.17,357.904 Q712.123,356.727 713.407,356.088 Q714.692,355.449 716.67,354.861 z" fill="#151515"/>
        <path d="M779.611,354.427 Q781.487,354.427 783.131,355.27 Q784.776,356.114 785.778,357.444 Q786.78,358.773 787.396,360.665 Q788.527,363.887 788.527,367.185 Q788.527,370.484 788.321,372.35 Q788.116,374.217 787.499,376.134 Q786.883,378.052 785.906,379.331 Q783.697,382.297 779.329,382.297 Q776.605,382.297 773.702,381.581 Q770.798,380.865 769.205,380.251 L769.205,395.643 L766.379,395.643 L766.379,354.733 L768.434,354.733 L769.257,357.75 Q771.107,356.267 774.421,355.347 Q777.736,354.427 779.611,354.427 z M779.329,379.382 Q782.206,379.382 783.799,377.183 Q785.598,374.779 785.598,368.796 Q785.598,362.813 783.902,360.077 Q782.206,357.341 779.329,357.341 Q774.961,357.341 769.257,359.847 L769.257,378.001 Q774.652,379.382 779.329,379.382 z" fill="#151515"/>
        <path d="M803.656,372.222 L803.656,341.847 L806.585,341.847 L806.585,372.222 Q806.585,376.262 807.767,377.592 Q808.692,378.666 810.131,378.973 Q814.088,379.893 814.448,379.893 L814.448,381.887 L810.285,381.887 Q803.656,381.887 803.656,372.222 z" fill="#151515"/>
        <path d="M827.624,355.756 Q833.379,354.222 840.522,354.222 Q843.914,354.222 846.098,356.165 Q848.282,358.108 848.282,362.097 L848.282,381.887 L846.123,381.887 L845.353,378.615 Q845.301,378.615 844.53,378.972 Q843.76,379.33 842.501,379.867 Q841.242,380.404 839.751,380.916 Q836.257,382.194 833.456,382.194 Q830.656,382.194 828.703,380.404 Q826.75,378.615 826.75,375.444 L826.75,372.325 Q826.75,368.029 829.936,366.341 Q831.478,365.523 833.585,365.523 Q839.443,365.523 842.398,365.523 Q845.353,365.523 845.353,365.523 Q845.353,363.836 845.353,362.966 Q845.353,362.097 845.353,362.097 Q845.353,357.034 840.06,357.034 Q835.794,357.034 827.624,357.853 z M829.679,375.188 Q829.679,377.336 830.759,378.308 Q831.889,379.279 833.328,379.279 Q834.767,379.279 836.385,378.998 Q838.004,378.717 839.494,378.308 Q842.629,377.489 844.53,376.825 L845.353,376.518 L845.353,367.722 L833.585,368.438 Q829.679,368.694 829.679,372.529 z" fill="#151515"/>
        <path d="M872.841,354.861 Q874.82,354.273 877.107,354.273 Q879.393,354.273 881.346,355.5 Q885.2,357.955 885.2,362.966 L885.2,381.887 L882.271,381.887 L882.271,362.966 Q882.271,360.307 880.755,358.747 Q879.239,357.188 876.978,357.188 Q874.717,357.188 872.97,357.571 Q871.223,357.955 869.938,358.492 Q868.653,359.029 866.341,360.154 L866.341,381.887 L863.412,381.887 L863.412,354.733 L865.416,354.733 L866.341,357.904 Q868.294,356.727 869.578,356.088 Q870.863,355.449 872.841,354.861 z" fill="#151515"/>
        <path d="M909.758,354.861 Q911.737,354.273 914.024,354.273 Q916.31,354.273 918.263,355.5 Q922.117,357.955 922.117,362.966 L922.117,381.887 L919.188,381.887 L919.188,362.966 Q919.188,360.307 917.672,358.747 Q916.156,357.188 913.895,357.188 Q911.634,357.188 909.887,357.571 Q908.14,357.955 906.855,358.492 Q905.57,359.029 903.258,360.154 L903.258,381.887 L900.329,381.887 L900.329,354.733 L902.333,354.733 L903.258,357.904 Q905.211,356.727 906.495,356.088 Q907.78,355.449 909.758,354.861 z" fill="#151515"/>
        <path d="M936.681,350.233 L936.681,347.369 Q936.681,346.295 937.709,346.295 L939.61,346.295 Q940.587,346.295 940.587,347.369 L940.587,350.233 Q940.587,351.255 939.61,351.255 L937.709,351.255 Q937.092,351.255 936.887,350.898 Q936.681,350.54 936.681,350.233 z M937.092,381.887 L937.092,354.733 L940.021,354.733 L940.021,381.887 z" fill="#151515"/>
        <path d="M965.145,354.861 Q967.124,354.273 969.411,354.273 Q971.697,354.273 973.65,355.5 Q977.504,357.955 977.504,362.966 L977.504,381.887 L974.575,381.887 L974.575,362.966 Q974.575,360.307 973.059,358.747 Q971.543,357.188 969.282,357.188 Q967.021,357.188 965.274,357.571 Q963.527,357.955 962.242,358.492 Q960.957,359.029 958.645,360.154 L958.645,381.887 L955.716,381.887 L955.716,354.733 L957.72,354.733 L958.645,357.904 Q960.598,356.727 961.882,356.088 Q963.167,355.449 965.145,354.861 z" fill="#151515"/>
        <path d="M991.916,375.904 Q991.916,374.523 992.841,373.347 Q993.766,372.17 995.41,371.915 Q991.916,370.074 991.916,364.295 Q991.916,354.63 1000.806,354.63 L1016.839,354.63 L1016.839,356.778 L1012.162,357.545 Q1012.162,357.596 1012.471,357.98 Q1012.779,358.363 1012.882,358.542 Q1012.984,358.721 1013.267,359.182 Q1013.55,359.642 1013.678,360.076 Q1013.807,360.511 1013.961,361.176 Q1014.269,362.301 1014.269,363.835 Q1014.269,365.369 1014.089,366.469 Q1013.909,367.568 1013.37,368.949 Q1012.83,370.329 1011.957,371.378 Q1011.083,372.426 1009.49,373.142 Q1007.897,373.858 1005.79,373.858 L997.774,373.858 Q996.335,373.858 995.59,374.446 Q994.845,375.034 994.845,375.98 Q994.845,376.926 995.693,377.463 Q996.54,378 997.62,378 L1008.462,378 Q1011.751,378 1013.55,379.867 Q1015.348,381.733 1015.348,384.955 L1015.348,387.972 Q1015.348,391.245 1014.012,392.983 Q1012.676,394.773 1010.98,395.234 Q1009.285,395.694 1007.64,395.694 L999.932,395.694 Q994.845,395.694 992.841,392.165 Q991.761,390.375 991.761,387.819 L991.761,383.318 L993.354,379.279 Q991.916,378.205 991.916,375.904 z M997.671,380.864 Q995.924,380.864 994.742,380.097 L994.742,387.819 Q994.742,390.938 996.643,391.961 Q998.185,392.779 999.932,392.779 L1007.64,392.779 Q1012.419,392.779 1012.419,387.972 L1012.419,385.108 Q1012.419,383.012 1011.469,381.938 Q1010.518,380.864 1008,380.864 z M996.129,359.386 Q994.845,361.227 994.845,364.219 Q994.845,367.21 996.206,369.077 Q997.568,370.943 1000.446,370.943 L1005.533,370.943 Q1010.004,370.943 1011.083,366.545 Q1011.34,365.574 1011.34,364.5 Q1011.34,357.545 1006.253,357.545 L1000.651,357.545 Q997.414,357.545 996.129,359.386 z" fill="#151515"/>
      </g>
      <path d="M819.832,118.37 C788.611,118.37 763.301,93.06 763.301,61.838 C763.301,30.616 788.611,5.306 819.833,5.306 L878.304,5.306 L878.304,5.306 L946.082,5.306 L946.082,5.306 L960.085,5.306 C991.307,5.306 1016.617,30.617 1016.617,61.838 C1016.617,93.06 991.307,118.37 960.085,118.37 L891.418,118.37 L891.418,118.37 z M821.342,26.097 C801.093,26.098 784.678,42.791 784.678,63.383 C784.678,83.975 801.093,100.668 821.342,100.668 C904.722,100.668 859.77,100.668 958.575,100.668 C978.825,100.668 995.24,83.975 995.24,63.383 C995.24,42.791 978.825,26.098 958.576,26.098 L891.418,26.097 L891.418,26.097 z" fill="#D21800"/>
      <path d="M672.657,5.306 C703.879,5.306 729.189,30.617 729.189,61.838 C729.189,93.06 703.879,118.37 672.657,118.37 L528.165,118.37 L528.165,118.37 L506.815,118.37 C475.593,118.37 450.283,93.06 450.283,61.838 C450.283,30.617 475.593,5.306 506.815,5.306 L528.165,5.306 L528.165,5.306 z M528.165,26.097 L508.324,26.097 C488.076,26.098 471.661,42.791 471.661,63.383 C471.661,83.975 488.076,100.668 508.325,100.668 L528.165,100.668 L528.165,100.668 L671.147,100.668 C691.396,100.668 707.811,83.975 707.811,63.383 C707.811,42.791 691.396,26.098 671.147,26.098 L528.165,26.097 z" fill="#F47A00"/>
      <path d="M364.067,5.306 C395.29,5.306 420.6,30.616 420.6,61.838 C420.6,93.06 395.29,118.37 364.068,118.37 L106.721,118.37 L106.721,118.37 L60.548,118.37 C29.326,118.37 4.016,93.06 4.016,61.838 C4.016,30.616 29.326,5.306 60.548,5.306 z M62.057,26.097 C41.809,26.098 25.394,42.791 25.394,63.383 C25.394,83.975 41.809,100.668 62.058,100.668 L106.721,100.668 L106.721,100.668 L362.558,100.668 C382.807,100.668 399.222,83.975 399.222,63.383 C399.222,42.791 382.807,26.098 362.558,26.098 z" fill="#838D11"/>
    </g>
  </g>
  <defs/>
</svg>
